<?xml version="1.0" standalone="no"?><!DOCTYPE svg PUBLIC "-//W3C//DTD SVG 1.1//EN" "http://www.w3.org/Graphics/SVG/1.1/DTD/svg11.dtd"><svg class="c-logo_image" role="img" title="Kvell"><path d="M81 0h10.5v45.3H81zM95.5 0h10.6v45.3H95.5zM46.7 14.7H36.4c.1.7-.2 3.7-1.9 7.9-.4.9-2.4 5.9-4.5 10.9l-7.2-17.2L34.6 0H23.7L11.1 19.1V0H.1v45.3h11V32.4l4.8-6.7 8.6 19.6h10.9s7.8-19.1 9.3-22.7c1.8-4.1 2.2-7.1 2-7.9zM68.9 34l8.9 2.8c-2.9 6.2-8.4 9.2-16 9.2-9.7 0-16.7-5.9-16.7-16.2 0-10.4 6.7-16.7 16.6-16.7 7.7 0 17.4 4.5 16.2 18.9H55.3c.6 3.7 2.9 5.6 6.4 5.7 5.8.3 7.2-3.7 7.2-3.7zm-1.1-8c-.5-3-2.5-4.7-6.1-4.7-3.4 0-5.6 1.1-6.4 4.7h12.5zM120 40.2c0 2.9-2.4 5.2-5.3 5.2s-5.2-2.4-5.2-5.2 2.3-5.2 5.2-5.2c2.9 0 5.2 2.4 5.3 5.2"></path></svg>