<?xml version="1.0" standalone="no"?><!DOCTYPE svg PUBLIC "-//W3C//DTD SVG 1.1//EN" "http://www.w3.org/Graphics/SVG/1.1/DTD/svg11.dtd"><svg t="1512907003809" class="icon" style="" viewBox="0 0 1024 1024" version="1.1" xmlns="http://www.w3.org/2000/svg" p-id="578" xmlns:xlink="http://www.w3.org/1999/xlink" width="200" height="200"><defs><style type="text/css"></style></defs><path d="M525.946129 800.010553c7.228635-7.274684 7.080256-18.921955-0.337691-26.018583-7.4159-7.087419-19.291368-6.940063-26.521027 0.339738-7.228635 7.269567-7.079232 18.917862 0.336668 26.01449C506.842025 807.432593 518.71647 807.28626 525.946129 800.010553L525.946129 800.010553zM395.455145 836.056514c10.047844 2.503007 20.256346-3.448542 22.813588-13.295817 2.547009-9.843182-3.521197-19.85521-13.560854-22.363334-10.029424-2.503007-20.237927 3.448542-22.803355 13.295817C379.356492 823.536362 385.425721 833.553507 395.455145 836.056514L395.455145 836.056514zM298.396599 743.238548c2.809999 9.782807 13.176091 15.47239 23.140023 12.722766 9.974166-2.755764 15.771195-12.916171 12.970406-22.700001-2.808976-9.777691-13.166881-15.47239-23.141046-12.721743C301.403073 723.299427 295.587624 733.458811 298.396599 743.238548L298.396599 743.238548zM559.360146 671.15072c-2.799766-9.783831-13.166881-15.477506-23.140023-12.721743-9.963932 2.75474-15.770172 12.914124-12.96222 22.693862 2.811022 9.782807 13.167904 15.47239 23.141046 12.722766C556.362882 691.089841 562.169121 680.930457 559.360146 671.15072L559.360146 671.15072zM331.820849 614.377692c-7.239891 7.275707-7.080256 18.922978 0.336668 26.02063 7.407714 7.086395 19.282159 6.939039 26.521027-0.340761 7.229658-7.274684 7.080256-18.917862-0.337691-26.009374C350.92393 606.955652 339.050508 607.103008 331.820849 614.377692L331.820849 614.377692zM462.293413 578.337871c-10.030447-2.512217-20.237927 3.443425-22.795169 13.286608-2.556219 9.847276 3.51301 19.86442 13.551644 22.366404 10.038634 2.50403 20.247136-3.453658 22.794146-13.290701C478.409462 590.853929 472.332047 580.836785 462.293413 578.337871L462.293413 578.337871zM475.160465 528.7198c100.476389 25.062815 161.235195 125.323287 135.679146 223.86972-25.557072 98.55155-127.765919 158.148903-228.242308 133.085064-100.467179-25.067932-161.227008-125.32738-135.670959-223.877907C272.47523 563.250244 374.693286 503.651868 475.160465 528.7198L475.160465 528.7198zM478.249827 516.834098c107.163695 26.735921 171.968653 133.659139 144.706753 238.781338-27.2619 105.120153-136.26857 168.681794-243.440451 141.945873C272.352433 870.821295 207.547475 763.890914 234.808352 658.773831 262.070252 553.654702 371.077945 490.093061 478.249827 516.834098L478.249827 516.834098zM442.204889 655.825686c-28.918633-7.216355-58.334593 9.939373-65.695235 38.304398-7.351432 28.367071 10.132778 57.215096 39.052434 64.430428s58.33357-9.93528 65.685002-38.300304C488.599546 691.893136 471.124546 663.041018 442.204889 655.825686L442.204889 655.825686zM485.695403 488.112963C609.050872 518.890944 683.614078 641.923048 652.232346 762.918773c-31.372521 120.999818-156.806325 194.134489-280.161794 163.357532C248.715083 895.503441 174.151877 772.467243 205.524398 651.470495 236.907153 530.469654 362.340957 457.337029 485.695403 488.112963L485.695403 488.112963zM212.239334 164.849512c-19.778462-4.933359-39.885406 6.792707-44.914956 26.188452-5.028527 19.396769 6.921643 39.123043 26.700105 44.056402 19.769252 4.932336 39.885406-6.788613 44.914956-26.189476C243.967966 189.504028 232.017796 169.781848 212.239334 164.849512L212.239334 164.849512zM230.585167 94.090958c59.616796 14.876826 95.653547 74.336032 80.491219 132.808772-15.171538 58.481949-75.780941 93.824899-135.39876 78.95319-59.626006-14.875802-95.652524-74.332962-80.490196-132.809795C110.348736 114.566292 170.967348 79.218226 230.585167 94.090958L230.585167 94.090958zM821.888328 306.013579c-78.393441-19.561521-158.089551 26.919093-178.028673 103.805204-19.946284 76.890204 27.430746 155.070798 105.823164 174.632319 78.394465 19.551288 158.090575-26.919093 178.036859-103.809297C947.657776 403.746484 900.280746 325.569984 821.888328 306.013579L821.888328 306.013579zM794.888394 410.102239c19.778462 4.937452 31.737842 24.659633 26.700105 44.055378-5.030573 19.400862-25.13547 31.125905-44.914956 26.193569-19.769252-4.933359-31.729655-24.659633-26.700105-44.055378C755.004011 416.900062 775.108908 405.169903 794.888394 410.102239L794.888394 410.102239zM307.621704 130.599454c11.125385 16.144702 18.392906 34.791387 20.883633 54.417377l363.463012 131.361817c3.662413-2.562359 7.454786-4.987594 11.351536-7.260357 14.832823-8.647961 30.772864-14.821567 47.235814-18.441001L307.621704 130.599454 307.621704 130.599454zM834.754357 596.126003c-21.576411 6.751774-44.370557 8.975419-67.005067 6.458085l-93.461625 98.969059c0.50449 21.674649-1.976004 43.517119-7.54893 64.98506-0.935302 3.623527-1.966795 7.210215-3.062755 10.769274L834.754357 596.126003 834.754357 596.126003zM190.278159 650.776693l0.73985-2.925632c6.368034-24.557302 16.520255-47.65537 29.92045-68.635193l-54.766324-260.737396c-20.284999-6.085602-37.993313-16.879436-52.172243-30.832216L190.278159 650.776693z" p-id="579" fill="#46c3df"></path></svg>